<svg width="66" height="49" viewBox="0 0 66 49" fill="none" xmlns="http://www.w3.org/2000/svg">
<path d="M55.9085 4.10367C51.5722 2.15897 46.9945 0.779331 42.2922 0C41.6487 1.1268 41.0665 2.28612 40.548 3.47312C35.5391 2.73376 30.4454 2.73376 25.4366 3.47312C24.9178 2.28624 24.3356 1.12693 23.6924 0C18.9871 0.785912 14.4063 2.16883 10.0657 4.11384C1.4484 16.6028 -0.88761 28.7817 0.280393 40.7876C5.32688 44.44 10.9753 47.2177 16.9802 49C18.3324 47.2186 19.5288 45.3287 20.5569 43.3505C18.6042 42.636 16.7195 41.7546 14.9246 40.7164C15.397 40.3808 15.859 40.035 16.3054 39.6994C21.5282 42.1053 27.2286 43.3528 33.0001 43.3528C38.7716 43.3528 44.472 42.1053 49.6947 39.6994C50.1464 40.0604 50.6084 40.4062 51.0756 40.7164C49.2772 41.7563 47.389 42.6394 45.4328 43.3555C46.4597 45.3329 47.6562 47.2212 49.0095 49C55.0195 47.2249 60.6723 44.4484 65.7197 40.7927C67.0902 26.8697 63.3785 14.8027 55.9085 4.10367ZM22.0364 33.404C18.7816 33.404 16.0926 30.5106 16.0926 26.951C16.0926 23.3914 18.6881 20.4726 22.026 20.4726C25.3639 20.4726 28.0322 23.3914 27.9751 26.951C27.918 30.5106 25.3535 33.404 22.0364 33.404ZM43.9637 33.404C40.7037 33.404 38.0251 30.5106 38.0251 26.951C38.0251 23.3914 40.6206 20.4726 43.9637 20.4726C47.3068 20.4726 49.9543 23.3914 49.8972 26.951C49.8401 30.5106 47.2809 33.404 43.9637 33.404Z" fill="#0032AF"/>
</svg>
