<svg width="157" height="29" viewBox="0 0 157 29" fill="none" xmlns="http://www.w3.org/2000/svg">
<path d="M1.24 12.68V9H14.8L15.04 12.32L6.52 24.32H15.08V28H1.08L0.76 25.12L9.48 12.68H1.24ZM24.2 28L18.4 1.8H22.8L27.72 24.28H28.56L33.28 1.8H37.56L31.96 28H24.2ZM41.72 11.12C43.08 9.49333 45.1733 8.68 48 8.68C50.8267 8.68 52.92 9.49333 54.28 11.12C55.64 12.72 56.32 15.2 56.32 18.56C56.32 21.92 55.64 24.4267 54.28 26.08C52.92 27.7067 50.8267 28.52 48 28.52C45.1733 28.52 43.08 27.7067 41.72 26.08C40.36 24.4267 39.68 21.92 39.68 18.56C39.68 15.2 40.36 12.72 41.72 11.12ZM44.92 13.96C44.3867 14.8933 44.12 16.4267 44.12 18.56C44.12 20.6933 44.4 22.24 44.96 23.2C45.52 24.16 46.5333 24.64 48 24.64C49.4667 24.64 50.48 24.16 51.04 23.2C51.6 22.24 51.88 20.6933 51.88 18.56C51.88 16.4267 51.6 14.8933 51.04 13.96C50.5067 13.0267 49.4933 12.56 48 12.56C46.5067 12.56 45.48 13.0267 44.92 13.96ZM60.36 12.68V9H63.6V4.44L67.72 4.04V9H75.2V12.68H67.72V20.68C67.72 22.1467 67.8667 23.1867 68.16 23.8C68.4533 24.3867 69.0533 24.68 69.96 24.68C71.5333 24.68 73.3733 24.4267 75.48 23.92L76.16 27.48C73.84 28.0933 71.7733 28.4 69.96 28.4C67.4 28.4 65.6933 27.8267 64.84 26.68C64.0133 25.5333 63.6 23.5333 63.6 20.68V12.68H60.36ZM79.96 18.52C79.96 15.2933 80.68 12.8533 82.12 11.2C83.56 9.52 85.56 8.68 88.12 8.68C90.68 8.68 92.6533 9.44 94.04 10.96C95.4533 12.4533 96.1867 14.6533 96.24 17.56L96.08 20.52H84.4C84.64 23.4 86.08 24.84 88.72 24.84C90.56 24.84 92.5067 24.5067 94.56 23.84L95.4 27.32C94.5467 27.6133 93.44 27.8667 92.08 28.08C90.72 28.32 89.6 28.44 88.72 28.44C82.88 28.44 79.96 25.1333 79.96 18.52ZM88.28 12.4C87.0267 12.4 86.08 12.7733 85.44 13.52C84.8267 14.24 84.48 15.4533 84.4 17.16H91.8C91.8 13.9867 90.6267 12.4 88.28 12.4ZM105 28V22.2H110.8V28H105ZM120.44 28V24.32H126.4V12.68H120.76V9H130.52V24.32H136.16V28H120.44ZM128.24 6.24C127.44 6.24 126.8 6 126.32 5.52C125.867 5.01333 125.64 4.36 125.64 3.56C125.64 2.76 125.88 2.12 126.36 1.64C126.84 1.16 127.48 0.919998 128.28 0.919998C129.107 0.919998 129.733 1.16 130.16 1.64C130.613 2.09333 130.84 2.73333 130.84 3.56C130.84 4.38667 130.613 5.04 130.16 5.52C129.707 6 129.067 6.24 128.24 6.24ZM141.72 11.12C143.08 9.49333 145.173 8.68 148 8.68C150.827 8.68 152.92 9.49333 154.28 11.12C155.64 12.72 156.32 15.2 156.32 18.56C156.32 21.92 155.64 24.4267 154.28 26.08C152.92 27.7067 150.827 28.52 148 28.52C145.173 28.52 143.08 27.7067 141.72 26.08C140.36 24.4267 139.68 21.92 139.68 18.56C139.68 15.2 140.36 12.72 141.72 11.12ZM144.92 13.96C144.387 14.8933 144.12 16.4267 144.12 18.56C144.12 20.6933 144.4 22.24 144.96 23.2C145.52 24.16 146.533 24.64 148 24.64C149.467 24.64 150.48 24.16 151.04 23.2C151.6 22.24 151.88 20.6933 151.88 18.56C151.88 16.4267 151.6 14.8933 151.04 13.96C150.507 13.0267 149.493 12.56 148 12.56C146.507 12.56 145.48 13.0267 144.92 13.96Z" fill="#0A093D"/>
</svg>
