<svg width="20" height="21" viewBox="0 0 20 21" fill="none" xmlns="http://www.w3.org/2000/svg">
<g clip-path="url(#clip0_125_352)">
<path d="M9.99951 0.65918C4.47451 0.65918 -0.000488281 5.05918 -0.000488281 10.4858C-0.000488281 14.8283 2.86451 18.5108 6.83701 19.8092C7.33701 19.9017 7.52034 19.5975 7.52034 19.3367C7.52034 19.1033 7.51201 18.485 7.50784 17.6658C4.72618 18.2583 4.13951 16.3475 4.13951 16.3475C3.68451 15.2133 3.02701 14.91 3.02701 14.91C2.12118 14.3008 3.09701 14.3133 3.09701 14.3133C4.10118 14.3817 4.62868 15.3258 4.62868 15.3258C5.52034 16.8283 6.96951 16.3942 7.54118 16.1433C7.63118 15.5075 7.88868 15.075 8.17451 14.8292C5.95368 14.5833 3.61951 13.7383 3.61951 9.97335C3.61951 8.90085 4.00701 8.02418 4.64868 7.33668C4.53618 7.08835 4.19868 6.08918 4.73618 4.73585C4.73618 4.73585 5.57368 4.47251 7.48618 5.74335C8.28618 5.52501 9.13618 5.41668 9.98618 5.41168C10.8362 5.41668 11.6862 5.52501 12.4862 5.74335C14.3862 4.47251 15.2237 4.73585 15.2237 4.73585C15.7612 6.08918 15.4237 7.08835 15.3237 7.33668C15.9612 8.02418 16.3487 8.90085 16.3487 9.97335C16.3487 13.7483 14.0112 14.5792 11.7862 14.8208C12.1362 15.1158 12.4612 15.7183 12.4612 16.6392C12.4612 17.9542 12.4487 19.0108 12.4487 19.33C12.4487 19.5875 12.6237 19.895 13.1362 19.7967C17.137 18.5067 19.9995 14.8217 19.9995 10.4858C19.9995 5.05918 15.522 0.65918 9.99951 0.65918Z" fill="white"/>
</g>
<defs>
<clipPath id="clip0_125_352">
<rect width="20" height="20" fill="white" transform="translate(-0.000488281 0.242188)"/>
</clipPath>
</defs>
</svg>
