<svg width="344" height="435" viewBox="0 0 344 435" fill="none" xmlns="http://www.w3.org/2000/svg">
<path fill-rule="evenodd" clip-rule="evenodd" d="M344 401.69V32.48C344 14.62 329.38 0 311.52 0H84.8601L0 84.86V401.68C0 419.53 14.6201 434.15 32.4701 434.15H311.52C329.38 434.15 344 419.54 344 401.68V401.69ZM45.3501 87.7H87.6901V45.36L45.3501 87.7ZM37.91 123.39H90.3C108.15 123.39 122.77 108.78 122.77 90.92V38.53H298.8C302.8 38.53 306.08 41.8099 306.08 45.8099V388.35C306.08 392.36 302.8 395.63 298.8 395.63H45.1901C41.1901 395.63 37.91 392.35 37.91 388.35V123.39Z" fill="#0A093D"/>
<path fill-rule="evenodd" clip-rule="evenodd" d="M146.839 155.127C146.839 125.624 92.0815 125.624 92.0815 155.127C92.0815 167.924 88.6624 185.165 106.587 190.876V199.703L92.6513 204.024C82.463 207.185 73 211.843 73 221.402V239.025C73 241.636 75.4176 243.759 78.3532 243.759H162.605C165.558 243.759 167.958 241.621 167.958 239.025V221.402C167.958 211.843 158.651 206.834 148.324 204.024L132.334 199.703V190.876C150.258 185.165 146.839 167.924 146.839 155.127ZM73 342.285H271.983V362H73V342.285ZM73 302.872H271.983V322.586H73V302.872ZM73 263.458H271.983V283.157H73V263.458ZM190.891 224.044H272V243.759H190.891V224.044ZM190.891 184.63H272V204.345H190.891V184.63Z" fill="#0A093D"/>
</svg>
