<svg width="344" height="435" viewBox="0 0 344 435" fill="none" xmlns="http://www.w3.org/2000/svg">
<path fill-rule="evenodd" clip-rule="evenodd" d="M344 401.69V32.48C344 14.62 329.38 0 311.52 0H84.8601L0 84.86V401.68C0 419.53 14.6201 434.15 32.4701 434.15H311.52C329.38 434.15 344 419.54 344 401.68V401.69ZM45.3501 87.7H87.6901V45.36L45.3501 87.7ZM37.91 123.39H90.3C108.15 123.39 122.77 108.78 122.77 90.92V38.53H298.8C302.8 38.53 306.08 41.8099 306.08 45.8099V388.35C306.08 392.36 302.8 395.63 298.8 395.63H45.1901C41.1901 395.63 37.91 392.35 37.91 388.35V123.39Z" fill="#0A093D"/>
<path fill-rule="evenodd" clip-rule="evenodd" d="M190.691 139C216.57 139 237.733 160.827 237.733 187.496V221.622C244.066 221.699 249.197 227.064 249.197 233.61V325.218C249.197 331.822 243.953 337.207 237.563 337.207H118.634C112.225 337.207 107 331.803 107 325.218V233.61C107 227.064 112.15 221.719 118.464 221.622V187.496C118.464 160.827 139.646 139 165.506 139H190.691ZM207.587 221.622V191.021C207.587 179.323 198.302 169.775 186.969 169.775H169.284C157.951 169.775 148.667 179.342 148.667 191.021V221.622H207.587ZM178.117 251.68C186.575 251.68 193.435 258.749 193.435 267.464C193.435 273.313 190.352 278.407 185.767 281.138V304.456C185.767 305.948 184.583 307.168 183.135 307.168H173.062C171.614 307.168 170.43 305.948 170.43 304.456V281.138C165.845 278.407 162.762 273.313 162.762 267.464C162.762 258.749 169.622 251.68 178.08 251.68H178.117Z" fill="#0A093D"/>
</svg>
