<svg width="232" height="65" viewBox="0 0 232 65" fill="none" xmlns="http://www.w3.org/2000/svg">
<path d="M28.9675 64.7539C26.6185 63.7481 24.3348 62.781 22.0595 61.7946C15.0807 58.7718 8.11322 55.7158 1.1202 52.7345C0.26912 52.3725 -0.0457771 51.9414 0.00528756 51.0434C0.0875584 49.6177 0.00529795 48.1864 0.0336672 46.7551C0.0336672 45.625 0.725878 45.205 1.78972 45.6775C2.76846 46.1141 3.37556 46.9513 4.01386 47.7443C4.84508 48.7777 5.7529 49.7227 6.97562 50.3333C9.60545 51.6403 12.4424 49.9382 12.3005 47.0508C12.1388 43.818 10.2977 41.4638 7.68769 39.6844C6.66356 38.9826 5.36709 39.1567 4.16423 39.4302C1.54007 40.0325 0.0279878 38.908 0.0279878 36.3355C0.0279878 29.9003 0.0279913 23.4623 0.0138067 17.0271C0.0138067 16.0407 0.0762126 15.676 1.23084 16.1789C10.17 20.0859 19.1347 23.9348 28.0909 27.7976C28.6582 28.0408 29.0951 28.2397 29.0923 29.0272C29.062 40.7242 29.0545 52.4213 29.0696 64.1184C29.0489 64.332 29.0148 64.5443 28.9675 64.7539Z" fill="#0C0B3F"/>
<path d="M1.87695 43.8495C3.15866 42.7411 4.33782 41.722 5.51186 40.6761C5.72217 40.4632 5.99288 40.3484 6.27171 40.3539C6.55055 40.3595 6.81774 40.4848 7.02171 40.7059C8.60846 42.2405 9.91066 44.0075 10.2695 46.4896C10.449 47.7292 10.1926 48.793 9.27237 49.4694C8.40338 50.0951 7.63437 49.5111 6.91405 48.9181C6.31417 48.4135 5.78646 47.8021 5.35036 47.1064C4.45574 45.7089 3.47395 44.4276 1.87695 43.8495Z" fill="#0C0B3F"/>
<path d="M1.87695 12.3327C4.11995 11.3569 6.16949 10.4799 8.20221 9.56996C15.105 6.48113 22.1761 3.76505 28.9051 0.26785C29.169 0.101274 29.4746 0.0088173 29.7886 0.00059993C30.1026 -0.00761743 30.4129 0.0687168 30.6855 0.221254C32.1294 0.936591 33.6154 1.59163 35.1154 2.18089C35.9061 2.49334 35.8388 2.85238 35.3958 3.3786C34.6472 4.27757 33.6182 4.62565 32.5023 4.82024C31.2014 5.04772 29.8808 5.19298 28.706 5.86721C27.4219 6.60721 26.6789 7.67885 26.8219 9.15612C26.9565 10.5566 27.9238 11.3487 29.2051 11.8229C31.6219 12.7191 33.9939 12.371 36.3378 11.5488C37.8042 11.0472 38.5135 9.8276 39.0126 8.53396C39.4724 7.32803 40.3248 6.76069 41.5584 6.55513C43.2659 6.28106 44.864 6.29476 46.5182 7.07862C50.1239 8.78611 53.8276 10.299 57.4893 11.8996C57.7445 12.012 58.0893 12.0394 58.1846 12.4998C54.98 13.9004 51.7613 15.3146 48.5313 16.7124C42.9238 19.1489 37.2911 21.5553 31.6892 24.022C30.6518 24.4797 29.7827 24.5509 28.7004 24.074C20.0621 20.2781 11.3985 16.5452 2.74332 12.7876C2.53023 12.6917 2.32275 12.5656 1.87695 12.3327Z" fill="#0C0B3F"/>
<path d="M36.2215 4.69238C36.3605 6.12128 36.4654 7.2644 36.5861 8.39694C36.6411 8.92616 36.5493 9.37865 36.0065 9.5824C34.0974 10.3048 32.1673 10.6832 30.1821 9.84701C29.6419 9.62209 29.1698 9.31778 29.1017 8.68271C29.0282 7.96562 29.3927 7.45227 29.9749 7.09505C30.7407 6.6161 31.6087 6.4785 32.4767 6.32503C33.7591 6.10805 35.0703 5.9387 36.2215 4.69238Z" fill="#0D0C40"/>
<path d="M60.9774 34.1022C60.9774 39.7929 60.9548 45.4863 61 51.177C61 52.0765 60.7454 52.5609 59.8684 52.8626C58.6575 53.2972 57.489 53.848 56.3206 54.3905C55.7067 54.6672 55.1691 54.7281 54.6853 54.1939C54.1478 53.5989 54.2185 52.9733 54.6033 52.3312C55.4241 51.0426 56.0332 49.6361 56.4083 48.1628C56.7648 46.6128 56.6035 45.1569 55.2936 44.1301C53.9837 43.1032 52.4277 43.1696 50.9395 43.9751C48.2405 45.4337 46.8768 47.7836 46.345 50.6483C46.2485 51.1493 46.2751 51.6656 46.4227 52.1545C46.5703 52.6435 46.8345 53.0911 47.1937 53.4605C47.4811 53.7466 47.6758 54.1093 47.7533 54.5032C47.8308 54.8972 47.7877 55.3047 47.6294 55.6747C46.9957 57.4185 46.1526 58.8965 44.2089 59.677C40.4292 61.1993 36.723 62.8988 33.0026 64.554C32.1765 64.9221 31.9049 64.8307 31.9077 63.8648C31.9304 52.3118 31.9304 40.7589 31.9077 29.2059C31.9077 28.4835 32.1907 28.1818 32.8272 27.9105C41.8466 24.0134 50.8594 20.0979 59.8655 16.1638C60.785 15.7597 60.9972 15.9064 60.9802 16.889C60.9576 22.6323 60.9774 28.3672 60.9774 34.1022Z" fill="#0C0B3F"/>
<path d="M52.3346 53.4923C51.2244 52.6914 50.2386 51.951 49.2209 51.2619C48.7497 50.9415 48.7526 50.5335 48.8567 50.053C49.3424 47.8861 50.4381 46.1996 52.4242 45.2628C53.6008 44.7097 54.3554 45.2356 54.4306 46.6137C54.4397 47.583 54.1969 48.5367 53.728 49.373C53.1036 50.6484 52.482 51.8966 52.3346 53.4923Z" fill="#0D0D40"/>
<path d="M75.24 27.68V24H88.8L89.04 27.32L80.52 39.32H89.08V43H75.08L74.76 40.12L83.48 27.68H75.24ZM98.2 43L92.4 16.8H96.8L101.72 39.28H102.56L107.28 16.8H111.56L105.96 43H98.2ZM115.72 26.12C117.08 24.4933 119.173 23.68 122 23.68C124.827 23.68 126.92 24.4933 128.28 26.12C129.64 27.72 130.32 30.2 130.32 33.56C130.32 36.92 129.64 39.4267 128.28 41.08C126.92 42.7067 124.827 43.52 122 43.52C119.173 43.52 117.08 42.7067 115.72 41.08C114.36 39.4267 113.68 36.92 113.68 33.56C113.68 30.2 114.36 27.72 115.72 26.12ZM118.92 28.96C118.387 29.8933 118.12 31.4267 118.12 33.56C118.12 35.6933 118.4 37.24 118.96 38.2C119.52 39.16 120.533 39.64 122 39.64C123.467 39.64 124.48 39.16 125.04 38.2C125.6 37.24 125.88 35.6933 125.88 33.56C125.88 31.4267 125.6 29.8933 125.04 28.96C124.507 28.0267 123.493 27.56 122 27.56C120.507 27.56 119.48 28.0267 118.92 28.96ZM134.36 27.68V24H137.6V19.44L141.72 19.04V24H149.2V27.68H141.72V35.68C141.72 37.1467 141.867 38.1867 142.16 38.8C142.453 39.3867 143.053 39.68 143.96 39.68C145.533 39.68 147.373 39.4267 149.48 38.92L150.16 42.48C147.84 43.0933 145.773 43.4 143.96 43.4C141.4 43.4 139.693 42.8267 138.84 41.68C138.013 40.5333 137.6 38.5333 137.6 35.68V27.68H134.36ZM153.96 33.52C153.96 30.2933 154.68 27.8533 156.12 26.2C157.56 24.52 159.56 23.68 162.12 23.68C164.68 23.68 166.653 24.44 168.04 25.96C169.453 27.4533 170.187 29.6533 170.24 32.56L170.08 35.52H158.4C158.64 38.4 160.08 39.84 162.72 39.84C164.56 39.84 166.507 39.5067 168.56 38.84L169.4 42.32C168.547 42.6133 167.44 42.8667 166.08 43.08C164.72 43.32 163.6 43.44 162.72 43.44C156.88 43.44 153.96 40.1333 153.96 33.52ZM162.28 27.4C161.027 27.4 160.08 27.7733 159.44 28.52C158.827 29.24 158.48 30.4533 158.4 32.16H165.8C165.8 28.9867 164.627 27.4 162.28 27.4ZM179 43V37.2H184.8V43H179ZM194.44 43V39.32H200.4V27.68H194.76V24H204.52V39.32H210.16V43H194.44ZM202.24 21.24C201.44 21.24 200.8 21 200.32 20.52C199.867 20.0133 199.64 19.36 199.64 18.56C199.64 17.76 199.88 17.12 200.36 16.64C200.84 16.16 201.48 15.92 202.28 15.92C203.107 15.92 203.733 16.16 204.16 16.64C204.613 17.0933 204.84 17.7333 204.84 18.56C204.84 19.3867 204.613 20.04 204.16 20.52C203.707 21 203.067 21.24 202.24 21.24ZM215.72 26.12C217.08 24.4933 219.173 23.68 222 23.68C224.827 23.68 226.92 24.4933 228.28 26.12C229.64 27.72 230.32 30.2 230.32 33.56C230.32 36.92 229.64 39.4267 228.28 41.08C226.92 42.7067 224.827 43.52 222 43.52C219.173 43.52 217.08 42.7067 215.72 41.08C214.36 39.4267 213.68 36.92 213.68 33.56C213.68 30.2 214.36 27.72 215.72 26.12ZM218.92 28.96C218.387 29.8933 218.12 31.4267 218.12 33.56C218.12 35.6933 218.4 37.24 218.96 38.2C219.52 39.16 220.533 39.64 222 39.64C223.467 39.64 224.48 39.16 225.04 38.2C225.6 37.24 225.88 35.6933 225.88 33.56C225.88 31.4267 225.6 29.8933 225.04 28.96C224.507 28.0267 223.493 27.56 222 27.56C220.507 27.56 219.48 28.0267 218.92 28.96Z" fill="#0A093D"/>
</svg>
