<svg width="1534" height="277" viewBox="0 0 1534 277" fill="none" xmlns="http://www.w3.org/2000/svg">
<path d="M551.02 112.482V74.4369H691.238L693.72 108.761L605.618 232.822H694.133V270.868H549.366L546.057 241.093L636.226 112.482H551.02ZM788.439 270.868L728.464 0H773.962L824.837 232.409H833.523L882.331 0H926.588L868.681 270.868H788.439ZM969.605 96.3545C983.668 79.5369 1005.31 71.1286 1034.54 71.1286C1063.78 71.1286 1085.42 79.5369 1099.48 96.3545C1113.54 112.896 1120.58 138.535 1120.58 173.273C1120.58 208.01 1113.54 233.925 1099.48 251.018C1085.42 267.835 1063.78 276.244 1034.54 276.244C1005.31 276.244 983.668 267.835 969.605 251.018C955.542 233.925 948.51 208.01 948.51 173.273C948.51 138.535 955.542 112.896 969.605 96.3545ZM1002.69 125.716C997.183 135.365 994.422 151.218 994.422 173.273C994.422 195.328 997.317 211.318 1003.11 221.243C1008.9 231.168 1019.37 236.13 1034.54 236.13C1049.71 236.13 1060.19 231.168 1065.98 221.243C1071.77 211.318 1074.66 195.328 1074.66 173.273C1074.66 151.218 1071.77 135.365 1065.98 125.716C1060.47 116.067 1049.98 111.242 1034.54 111.242C1019.1 111.242 1008.48 116.067 1002.69 125.716ZM1162.35 112.482V74.4369H1195.86V27.2936L1238.46 23.1582V74.4369H1315.81V112.482H1238.46V195.19C1238.46 210.354 1239.98 221.106 1243.01 227.446C1246.04 233.512 1252.24 236.544 1261.62 236.544C1277.89 236.544 1296.91 233.925 1318.7 228.687L1325.73 265.492C1301.74 271.832 1280.37 275.003 1261.62 275.003C1235.15 275.003 1217.5 269.076 1208.68 257.221C1200.13 245.366 1195.86 224.689 1195.86 195.19V112.482H1162.35ZM1365.03 172.859C1365.03 139.5 1372.47 114.274 1387.36 97.1816C1402.25 79.8129 1422.93 71.1286 1449.4 71.1286C1475.88 71.1286 1496.28 78.9858 1510.62 94.7003C1525.23 110.139 1532.82 132.883 1533.37 162.934L1531.72 193.536H1410.94C1413.42 223.311 1428.31 238.198 1455.61 238.198C1474.64 238.198 1494.77 234.752 1516 227.86L1524.68 263.838C1515.86 266.87 1504.42 269.49 1490.35 271.695C1476.29 274.176 1464.71 275.417 1455.61 275.417C1395.22 275.417 1365.03 241.23 1365.03 172.859ZM1451.06 109.588C1438.1 109.588 1428.31 113.447 1421.69 121.167C1415.35 128.61 1411.76 141.154 1410.94 158.799H1487.46C1487.46 125.992 1475.33 109.588 1451.06 109.588Z" fill="#0A093D"/>
<path fill-rule="evenodd" clip-rule="evenodd" d="M229.047 120.11C183.405 119.675 162.238 81.2521 127.483 76.248C53.8911 65.6452 -4.35726 147.364 0.256353 216.674C8.01461 333.256 168.62 242.06 229.047 242.713C290.13 241.412 450.076 333.256 457.837 216.674C462.453 147.364 404.202 65.6452 330.613 76.248C295.857 81.2521 274.686 119.675 229.047 120.11Z" fill="url(#paint0_linear_131_27)"/>
<path fill-rule="evenodd" clip-rule="evenodd" d="M130.261 127.911C158.133 127.911 180.732 150.492 180.732 178.346C180.732 206.199 158.133 228.78 130.261 228.78C102.389 228.78 79.7933 206.199 79.7933 178.346C79.7933 150.492 102.392 127.911 130.261 127.911Z" fill="white"/>
<path fill-rule="evenodd" clip-rule="evenodd" d="M130.26 146.912C147.631 146.912 161.715 160.987 161.715 178.347C161.715 195.706 147.631 209.781 130.26 209.781C112.889 209.781 98.8082 195.706 98.8082 178.347C98.8082 160.987 112.892 146.912 130.26 146.912Z" fill="#217BF4"/>
<path fill-rule="evenodd" clip-rule="evenodd" d="M140.29 160.318C145.825 160.318 150.313 164.803 150.313 170.335C150.313 175.866 145.822 180.351 140.29 180.351C134.758 180.351 130.264 175.866 130.264 170.335C130.264 164.803 134.752 160.318 140.29 160.318Z" fill="white"/>
<path fill-rule="evenodd" clip-rule="evenodd" d="M327.831 127.911C355.702 127.911 378.299 150.492 378.299 178.346C378.299 206.199 355.702 228.78 327.831 228.78C299.959 228.78 277.363 206.199 277.363 178.346C277.363 150.492 299.959 127.911 327.831 127.911Z" fill="white"/>
<path fill-rule="evenodd" clip-rule="evenodd" d="M327.83 146.912C345.198 146.912 359.282 160.987 359.282 178.347C359.282 195.706 345.198 209.781 327.83 209.781C310.462 209.781 296.373 195.706 296.373 178.347C296.373 160.987 310.456 146.912 327.83 146.912Z" fill="#217BF4"/>
<path fill-rule="evenodd" clip-rule="evenodd" d="M337.855 160.318C343.396 160.318 347.881 164.803 347.881 170.335C347.881 175.866 343.396 180.351 337.855 180.351C332.315 180.351 327.835 175.866 327.835 170.335C327.835 164.803 332.32 160.318 337.855 160.318Z" fill="white"/>
<defs>
<linearGradient id="paint0_linear_131_27" x1="766.685" y1="0" x2="766.685" y2="276.244" gradientUnits="userSpaceOnUse">
<stop offset="0.0001" stop-color="#0A093D"/>
</linearGradient>
</defs>
</svg>
