<svg width="344" height="435" viewBox="0 0 344 435" fill="none" xmlns="http://www.w3.org/2000/svg">
<path fill-rule="evenodd" clip-rule="evenodd" d="M344 401.69V32.48C344 14.62 329.38 0 311.52 0H84.8601L0 84.86V401.68C0 419.53 14.6201 434.15 32.4701 434.15H311.52C329.38 434.15 344 419.54 344 401.68V401.69ZM45.3501 87.7H87.6901V45.36L45.3501 87.7ZM37.91 123.39H90.3C108.15 123.39 122.77 108.78 122.77 90.92V38.53H298.8C302.8 38.53 306.08 41.8099 306.08 45.8099V388.35C306.08 392.36 302.8 395.63 298.8 395.63H45.1901C41.1901 395.63 37.91 392.35 37.91 388.35V123.39Z" fill="#0A093D"/>
<path fill-rule="evenodd" clip-rule="evenodd" d="M141.67 233.013L115.434 264.253C105.266 276.358 89.4224 262.82 98.5 249.34L133.833 196.874C137.291 191.741 141.388 189.785 147.384 189.785H209.123C215.118 189.785 219.215 191.722 222.673 196.874L258.006 249.34C267.084 262.82 251.259 276.358 241.073 264.253L214.836 233.013L224.026 325.513C226.113 346.526 196.7 350.632 193.26 329.812L182.379 284.182H174.128L163.246 329.812C158.36 350.322 130.394 346.546 132.48 325.513L141.67 233.013ZM178.244 108.5C197.715 108.5 213.502 124.769 213.502 144.833C213.502 164.898 197.715 181.167 178.244 181.167C158.773 181.167 142.986 164.898 142.986 144.833C142.986 124.769 158.773 108.5 178.244 108.5Z" fill="#0A093D"/>
</svg>
