<svg width="20" height="21" viewBox="0 0 20 21" fill="none" xmlns="http://www.w3.org/2000/svg">
<g clip-path="url(#clip0_125_359)">
<path d="M17.7703 7.99918C17.1386 7.99918 16.5828 8.26501 16.1736 8.67918C14.6695 7.62251 12.6411 6.94251 10.3936 6.87001L11.5611 1.53168L15.2786 2.37835C15.2786 3.30168 16.0203 4.05585 16.9303 4.05585C17.8578 4.05585 18.6036 3.28168 18.6036 2.35751C18.6036 1.43335 17.8628 0.65918 16.9311 0.65918C16.282 0.65918 15.722 1.05668 15.4428 1.60001L11.337 0.67668C11.1303 0.620846 10.9278 0.770846 10.8728 0.980846L9.59115 6.86585C7.36115 6.96001 5.35448 7.63918 3.84531 8.69668C3.43615 8.26501 2.85865 7.99918 2.22698 7.99918C-0.116353 7.99918 -0.883853 11.19 1.26198 12.2808C1.18615 12.6183 1.15198 12.9783 1.15198 13.3375C1.15198 16.9217 5.13115 19.8258 10.017 19.8258C14.9236 19.8258 18.9028 16.9217 18.9028 13.3375C18.9028 12.9783 18.8653 12.6017 18.7728 12.2633C20.8753 11.1683 20.1012 8.00085 17.7703 7.99918ZM4.66698 12.5075C4.66698 11.5667 5.40865 10.8092 6.34031 10.8092C7.25031 10.8092 7.99281 11.5617 7.99281 12.5075C7.99281 13.4317 7.25115 14.185 6.34031 14.185C5.41281 14.1892 4.66698 13.4317 4.66698 12.5075ZM13.6995 16.5058C12.1653 18.0625 7.83615 18.0625 6.30115 16.5058C6.13198 16.3558 6.13198 16.0908 6.30115 15.92C6.44865 15.77 6.71031 15.77 6.85781 15.92C8.02948 17.1392 11.9161 17.16 13.1386 15.92C13.2861 15.77 13.5478 15.77 13.6953 15.92C13.8678 16.0917 13.8678 16.3567 13.6995 16.5058ZM13.6653 14.1883C12.7553 14.1883 12.0136 13.4358 12.0136 12.5125C12.0136 11.5717 12.7553 10.8142 13.6653 10.8142C14.5928 10.8142 15.3386 11.5667 15.3386 12.5125C15.3345 13.4317 14.5928 14.1883 13.6653 14.1883Z" fill="white"/>
</g>
<defs>
<clipPath id="clip0_125_359">
<rect width="20" height="20" fill="white" transform="translate(-0.000488281 0.242188)"/>
</clipPath>
</defs>
</svg>
