<svg width="24" height="22" viewBox="0 0 24 22" fill="none" xmlns="http://www.w3.org/2000/svg">
<path d="M17.9917 0H17.9797C17.5062 0 17.1229 0.35229 17.1229 0.785796C17.1229 1.2193 17.5063 1.57159 17.9797 1.57159H17.9924H21.0641L7.10532 14.3731C6.95002 14.5155 6.85398 14.7116 6.85398 14.9291C6.85398 15.3633 7.23812 15.7149 7.71081 15.7149C7.94715 15.7149 8.16178 15.6268 8.3163 15.4851L22.2751 2.6836V5.50061V5.51164C22.2751 5.94586 22.6585 6.29744 23.1319 6.29744C23.6054 6.29744 23.9887 5.94579 23.9887 5.51164V5.49996V5.50068V0.913689C23.9962 0.875844 24 0.831117 24 0.78639C24 0.352169 23.6166 0.000594558 23.1432 0.000594558H23.1311H17.9908L17.9917 0ZM0.856834 4.71415C0.384139 4.71415 0 5.0658 0 5.49995V21.2142C0 21.6484 0.384139 22 0.856834 22H17.9917C18.4652 22 18.8486 21.6484 18.8486 21.2142V9.35828V9.34724C18.8486 8.91302 18.4651 8.56144 17.9917 8.56144C17.5182 8.56144 17.1349 8.91309 17.1349 9.34724V9.35892V9.35821V20.4284H1.71311V6.28523H13.8359H13.848C14.3214 6.28523 14.7048 5.93358 14.7048 5.49943C14.7048 5.06521 14.3214 4.71364 13.848 4.71364H13.8352L0.856834 4.71415Z" fill="#0C0B3F"/>
</svg>
