<svg width="18" height="18" viewBox="0 0 18 18" fill="none" xmlns="http://www.w3.org/2000/svg">
<g clip-path="url(#clip0_30_79)">
<path fill-rule="evenodd" clip-rule="evenodd" d="M1.72141 0.637558H14.8335L17.5962 3.18771V16.0237C17.5962 16.7674 17.0012 17.3413 16.2786 17.3413H1.72141C0.998829 17.3413 0.403809 16.7674 0.403809 16.0237V1.95516C0.403809 1.23258 0.998829 0.637558 1.72141 0.637558ZM4.14406 1.84887H13.8347V7.77807H4.14406V1.84887ZM3.14521 10.647H14.8548V16.1298H3.14521V10.647ZM5.46166 13.6647H12.5384C12.8997 13.6647 12.8997 14.2172 12.5384 14.2172H5.46166C5.10037 14.2172 5.10037 13.6647 5.46166 13.6647ZM5.46166 14.791H12.5384C12.8997 14.791 12.8997 15.3223 12.5384 15.3223H5.46166C5.10037 15.3223 5.10037 14.791 5.46166 14.791ZM5.46166 11.4546H12.5384C12.8997 11.4546 12.8997 11.9858 12.5384 11.9858H5.46166C5.10037 11.9858 5.10037 11.4546 5.46166 11.4546ZM5.46166 12.5596H12.5384C12.8997 12.5596 12.8997 13.1122 12.5384 13.1122H5.46166C5.10037 13.1122 5.10037 12.5596 5.46166 12.5596ZM10.2432 2.6565H12.2621V6.9705H10.2432V2.6565Z" fill="#0C0B3F"/>
</g>
<defs>
<clipPath id="clip0_30_79">
<rect width="18" height="18" fill="white"/>
</clipPath>
</defs>
</svg>
