<svg width="24" height="24" viewBox="0 0 24 24" fill="none" xmlns="http://www.w3.org/2000/svg">
<path fill-rule="evenodd" clip-rule="evenodd" d="M0 1.2C0 0.536724 0.650576 0 1.45455 0H22.5455C23.3494 0 24 0.536724 24 1.2C24 1.86327 23.3494 2.4 22.5455 2.4H22.5114L21.4531 11.379C21.456 11.413 21.4531 11.4458 21.4418 11.4786L20.2542 21.5613C20.0909 22.9441 18.6818 24 16.9958 24H7.00455C5.31845 24 3.90939 22.9442 3.74606 21.5613L3.65657 20.8031C3.63669 20.7551 3.62958 20.7035 3.63953 20.6531L1.96765 6.47215C1.89662 6.38778 1.881 6.27645 1.93356 6.17918L1.48895 2.39968H1.45486C0.650891 2.39968 0.000315348 1.86296 0.000315348 1.19968L0 1.2ZM2.67897 6.30924L2.9517 8.61314C2.96306 8.62134 2.97442 8.62954 2.98437 8.63775L3.86079 9.3608L5.348 7.2362L3.24431 5.50065L2.67897 6.30924ZM3.06106 9.54949L3.15765 10.3651L3.48435 9.89871L3.06106 9.54949ZM3.26703 11.2991L3.49998 13.2655C3.50992 13.2725 3.51987 13.2795 3.52981 13.2877L4.5909 14.1631L6.08239 12.042L4.01705 10.3382L3.42899 11.1772C3.39064 11.2334 3.33382 11.2745 3.26706 11.2991L3.26703 11.2991ZM3.60936 14.2018L3.74572 15.362L4.21306 14.6999L3.60936 14.2018ZM3.86646 16.3815L4.04686 17.9167C4.0568 17.9237 4.06675 17.9307 4.07527 17.9378L5.01703 18.7147L6.53975 16.6206L4.7443 15.1381L3.89203 16.351C3.8835 16.3616 3.87499 16.3722 3.86646 16.3815ZM4.15766 18.8542L4.26419 19.7518L4.6321 19.2456L4.15766 18.8542ZM4.38209 20.7561L4.47015 21.5026C4.5568 22.2409 5.09943 22.8573 5.85367 23.1737L7.18179 21.3491L5.16191 19.6827L4.38209 20.7561ZM6.55963 23.3681C6.70452 23.3892 6.85225 23.3998 7.00424 23.3998H9.56533L9.60368 23.347L7.71305 21.7873L6.55963 23.3681ZM10.6602 23.3998H14.1133C14.119 23.388 14.1261 23.3775 14.1332 23.3658L14.3519 23.0646L12.0579 21.172L10.5209 23.2556L10.5834 23.3072C10.6175 23.3353 10.6431 23.3658 10.6601 23.3998L10.6602 23.3998ZM15.7869 23.3998H16.9957C17.7727 23.3998 18.4744 23.1115 18.9432 22.6521L16.7841 20.872L15.2671 22.9709L15.7869 23.3998ZM19.3366 22.1283C19.4375 21.9338 19.5042 21.724 19.5298 21.5025L19.8054 19.1635L18.6874 18.2412L17.169 20.34L19.3366 22.1283ZM19.8963 18.39L20.1534 16.2139L19.071 17.7092L19.8963 18.39ZM20.348 14.5625L20.7073 11.5073L19.7599 10.7256L18.2229 12.8092L20.348 14.5625ZM20.7982 10.734L20.9985 9.04538L20.1491 10.1985L20.7982 10.734ZM21.2499 6.90656L21.7698 2.49681L19.5681 5.51906L21.2499 6.90656ZM21.642 1.79956H1.45412C1.05212 1.79956 0.726846 1.53121 0.726846 1.19956C0.726846 0.867914 1.05212 0.599564 1.45412 0.599564H22.545C22.947 0.599564 23.2723 0.867914 23.2723 1.19956C23.2723 1.53121 22.947 1.79956 22.545 1.79956H21.642ZM4.57503 2.39956H2.21848L2.40598 3.99213C2.44859 4.00737 2.48837 4.02846 2.52246 4.05659L3.08922 4.52416L4.57503 2.39956ZM2.51254 4.89683L2.71283 5.06207L2.558 5.28121L2.51254 4.89683ZM5.60497 2.39956L7.58794 4.03551L8.73139 2.39956H5.60497ZM9.57224 2.39956L8.12054 4.47378L10.2001 6.19058L11.693 4.07066L9.66742 2.39956H9.57224ZM10.6958 2.39956L12.0708 3.53394L12.8691 2.39956H10.6958ZM13.71 2.39956L12.6021 3.97221L14.5595 5.58706L16.0836 3.49291L14.7584 2.39956H13.71ZM15.7867 2.39956L16.4685 2.96206L16.8776 2.39956H15.7867ZM17.7256 2.39956L16.9984 3.39916L19.0367 5.08081L20.9913 2.39956H17.7256ZM3.62048 4.96256L5.10769 2.83796L7.21139 4.57351L5.72418 6.69811L3.62048 4.96256ZM6.25685 7.13755L7.74263 5.01296L9.82218 6.72741L8.33069 8.8485L6.25685 7.13755ZM8.86197 9.28678L10.3549 7.16685L12.2654 8.74303L10.7427 10.8383L8.86197 9.28678ZM10.7327 6.63003L12.6517 8.21323L14.1745 6.11793L12.2242 4.50896L10.7327 6.63003ZM11.2725 11.2753L12.7966 9.18113L14.8278 10.8569L13.3023 12.9499L11.2725 11.2753ZM13.1815 8.65028L15.2142 10.3272L16.7398 8.23425L14.7043 6.55496L13.1815 8.65028ZM13.8321 13.387L15.3577 11.294L17.3051 12.9007L15.7682 14.9843L13.8321 13.387ZM15.7441 10.7643L17.6943 12.3721L19.2298 10.2885L17.2696 8.67128L15.7441 10.7643ZM21.1562 7.67753L19.6192 9.76113L17.6562 8.1416L19.1818 6.04863L21.1562 7.67753ZM18.6519 5.61151L17.1263 7.70448L15.0908 6.02518L16.6135 3.92988L18.6519 5.61151ZM16.2982 15.4212L17.8337 13.3365L20.0581 15.1728L18.5411 17.2716L16.2982 15.4212ZM15.909 15.9486L18.1561 17.8025L16.6391 19.9025L14.3721 18.0322L15.909 15.9486ZM13.9829 18.5606L16.2542 20.4332L14.7357 22.5321L12.4474 20.6442L13.9829 18.5606ZM13.4545 18.1235L11.9175 20.2071L10.0098 18.6333L11.5354 16.5403L13.4545 18.1235ZM11.0056 16.1032L9.48003 18.1962L7.45588 16.5262L8.9786 14.4309L11.0056 16.1032ZM9.09366 18.7259L7.07094 17.0572L5.54679 19.1513L7.56809 20.8189L9.09366 18.7259ZM9.62348 19.163L8.09791 21.256L9.99279 22.8193L11.5283 20.7345L9.62348 19.163ZM8.44875 13.994L6.92603 16.0893L5.12206 14.6011L6.61497 12.4811L8.44875 13.994ZM8.83512 13.4643L6.99278 11.9444L8.48427 9.82333L10.3578 11.369L8.83512 13.4643ZM5.88057 7.67535L7.95303 9.38513L6.46012 11.505L4.39336 9.79998L5.88057 7.67535ZM9.36481 13.9016L10.8875 11.8063L12.9174 13.4809L11.3918 15.5739L9.36481 13.9016ZM11.9216 16.011L13.4472 13.918L15.379 15.5117L13.8435 17.5965L11.9216 16.011Z" fill="#FB2D00"/>
</svg>
