<svg width="29" height="28" viewBox="0 0 29 28" fill="none" xmlns="http://www.w3.org/2000/svg">
<path fill-rule="evenodd" clip-rule="evenodd" d="M0.554199 1.4C0.554199 0.626178 1.31288 0 2.25044 0H26.8459C27.7835 0 28.5422 0.626178 28.5422 1.4C28.5422 2.17382 27.7835 2.8 26.8459 2.8H26.8062L25.5721 13.2755C25.5754 13.3151 25.5721 13.3534 25.5588 13.3917L24.174 25.1549C23.9835 26.7681 22.3402 28 20.3741 28H8.72265C6.75639 28 5.1132 26.7682 4.92272 25.1549L4.81837 24.2703C4.79517 24.2143 4.78689 24.1541 4.79849 24.0953L2.8488 7.55084C2.76598 7.45241 2.74776 7.32252 2.80905 7.20904L2.29056 2.79963H2.25081C1.31325 2.79963 0.554567 2.17345 0.554567 1.39963L0.554199 1.4ZM3.67832 7.36078L3.99636 10.0487C4.00962 10.0582 4.02287 10.0678 4.03446 10.0774L5.05652 10.9209L6.79085 8.44223L4.33759 6.41743L3.67832 7.36078ZM4.1239 11.1411L4.23654 12.0926L4.61752 11.5485L4.1239 11.1411ZM4.36409 13.1823L4.63575 15.4764C4.64735 15.4846 4.65895 15.4928 4.67054 15.5024L5.90795 16.5237L7.64726 14.0491L5.23875 12.0612L4.55297 13.0401C4.50825 13.1057 4.44199 13.1535 4.36413 13.1823L4.36409 13.1823ZM4.76331 16.5688L4.92233 17.9223L5.46732 17.1499L4.76331 16.5688ZM5.06313 19.1118L5.2735 20.9028C5.2851 20.911 5.2967 20.9192 5.30663 20.9274L6.40488 21.8338L8.18063 19.3907L6.08683 17.6612L5.09294 19.0762C5.083 19.0885 5.07307 19.1008 5.06313 19.1118ZM5.40271 21.9965L5.52695 23.0438L5.95599 22.4532L5.40271 21.9965ZM5.66443 24.2155L5.76714 25.0864C5.86818 25.9477 6.50097 26.6668 7.38054 27.036L8.92935 24.9073L6.57384 22.9631L5.66443 24.2155ZM8.20381 27.2628C8.37277 27.2874 8.54505 27.2997 8.7223 27.2997H11.7089L11.7537 27.2382L9.54888 25.4185L8.20381 27.2628ZM12.9858 27.2997H17.0126C17.0192 27.286 17.0275 27.2737 17.0358 27.2601L17.2909 26.9087L14.6157 24.7007L12.8233 27.1316L12.8962 27.1917C12.936 27.2245 12.9658 27.2601 12.9857 27.2997L12.9858 27.2997ZM18.9643 27.2997H20.374C21.2801 27.2997 22.0984 26.9634 22.6451 26.4275L20.1272 24.3507L18.3581 26.7993L18.9643 27.2997ZM23.1039 25.8163C23.2215 25.5894 23.2993 25.3446 23.3291 25.0863L23.6505 22.3574L22.3468 21.2814L20.5761 23.73L23.1039 25.8163ZM23.7565 21.455L24.0563 18.9162L22.7941 20.6607L23.7565 21.455ZM24.2833 16.9896L24.7024 13.4252L23.5975 12.5133L21.8051 14.9441L24.2833 16.9896ZM24.8084 12.5231L25.0419 10.5529L24.0514 11.8983L24.8084 12.5231ZM25.3351 8.05765L25.9414 2.91295L23.3738 6.4389L25.3351 8.05765ZM25.7923 2.09949H2.24994C1.78114 2.09949 1.40182 1.78642 1.40182 1.39949C1.40182 1.01257 1.78114 0.699492 2.24994 0.699492H26.8454C27.3142 0.699492 27.6935 1.01257 27.6935 1.39949C27.6935 1.78642 27.3142 2.09949 26.8454 2.09949H25.7923ZM5.88943 2.79949H3.14131L3.35997 4.65749C3.40966 4.67526 3.45605 4.69987 3.4958 4.73268L4.15674 5.27819L5.88943 2.79949ZM3.48424 5.71297L3.7178 5.90575L3.53725 6.16141L3.48424 5.71297ZM7.09051 2.79949L9.40298 4.70809L10.7364 2.79949H7.09051ZM11.717 2.79949L10.0241 5.21941L12.4492 7.22234L14.1902 4.7491L11.828 2.79949H11.717ZM13.0273 2.79949L14.6308 4.12292L15.5617 2.79949H13.0273ZM16.5423 2.79949L15.2503 4.63424L17.533 6.51823L19.3104 4.07506L17.7649 2.79949H16.5423ZM18.9641 2.79949L19.7592 3.45574L20.2363 2.79949H18.9641ZM21.2252 2.79949L20.3771 3.96569L22.7542 5.92761L25.0335 2.79949H21.2252ZM4.77628 5.78965L6.51061 3.31095L8.96387 5.33576L7.22953 7.81446L4.77628 5.78965ZM7.85071 8.32715L9.58338 5.84845L12.0085 7.84864L10.2692 10.3233L7.85071 8.32715ZM10.8887 10.8346L12.6297 8.36133L14.8577 10.2002L13.0819 12.6447L10.8887 10.8346ZM13.0703 7.73504L15.3082 9.5821L17.0839 7.13759L14.8096 5.26045L13.0703 7.73504ZM13.6997 13.1545L15.4771 10.7113L17.8459 12.6664L16.0668 15.1082L13.6997 13.1545ZM15.926 10.092L18.2965 12.0484L20.0755 9.60663L17.7018 7.64745L15.926 10.092ZM16.6847 15.6182L18.4638 13.1764L20.7349 15.0508L18.9425 17.4817L16.6847 15.6182ZM18.9144 12.5583L21.1887 14.4341L22.9794 12.0032L20.6934 10.1165L18.9144 12.5583ZM25.2258 8.95712L23.4335 11.388L21.1442 9.49854L22.9233 7.05674L25.2258 8.95712ZM22.3054 6.54676L20.5263 8.98856L18.1526 7.02938L19.9283 4.58486L22.3054 6.54676ZM19.5606 17.9915L21.3513 15.5592L23.9453 17.7016L22.1762 20.1502L19.5606 17.9915ZM19.1067 18.6067L21.7273 20.7696L19.9582 23.2196L17.3144 21.0376L19.1067 18.6067ZM16.8605 21.654L19.5092 23.8388L17.7385 26.2874L15.0699 24.0849L16.8605 21.654ZM16.2443 21.1441L14.452 23.5749L12.2273 21.7388L14.0064 19.297L16.2443 21.1441ZM13.3885 18.7871L11.6095 21.2289L9.24898 19.2806L11.0247 16.8361L13.3885 18.7871ZM11.1589 21.8469L8.80008 19.9001L7.02266 22.3432L9.37984 24.2887L11.1589 21.8469ZM11.7768 22.3569L9.99769 24.7987L12.2074 26.6225L13.9981 24.1903L11.7768 22.3569ZM10.4068 16.3264L8.63109 18.7709L6.52736 17.0346L8.26834 14.5613L10.4068 16.3264ZM10.8574 15.7084L8.70894 13.9352L10.4483 11.4605L12.6332 13.2639L10.8574 15.7084ZM7.41192 8.95458L9.82874 10.9493L8.08776 13.4226L5.67758 11.4333L7.41192 8.95458ZM11.4751 16.2185L13.2509 13.774L15.618 15.7277L13.8389 18.1695L11.4751 16.2185ZM14.4568 18.6795L16.2359 16.2377L18.4887 18.097L16.698 20.5293L14.4568 18.6795Z" fill="#858585"/>
</svg>
