<svg width="17" height="14" viewBox="0 0 17 14" fill="none" xmlns="http://www.w3.org/2000/svg">
<path d="M16.9805 2.04C16.3805 2.3 15.7605 2.48 15.1005 2.56C15.7805 2.16 16.3005 1.52 16.5405 0.74C15.9005 1.12 15.2005 1.38 14.4605 1.54C13.8605 0.9 13.0005 0.5 12.0605 0.5C10.2405 0.5 8.78047 1.98 8.78047 3.78C8.78047 4.04 8.80047 4.28 8.86047 4.52C6.14047 4.4 3.74047 3.08 2.12047 1.1C0.960469 3.18 2.26047 4.9 3.12047 5.48C2.60047 5.48 2.08047 5.32 1.64047 5.08C1.64047 6.7 2.78047 8.04 4.26047 8.34C3.94047 8.44 3.22047 8.5 2.78047 8.4C3.20047 9.7 4.42047 10.66 5.84047 10.68C4.72047 11.56 3.08047 12.26 0.980469 12.04C2.44047 12.98 4.16047 13.52 6.02047 13.52C12.0605 13.52 15.3405 8.52 15.3405 4.2C15.3405 4.06 15.3405 3.92 15.3205 3.78C16.0005 3.28 16.5605 2.7 16.9805 2.04Z" fill="white"/>
</svg>
