<svg width="344" height="435" viewBox="0 0 344 435" fill="none" xmlns="http://www.w3.org/2000/svg">
<path fill-rule="evenodd" clip-rule="evenodd" d="M344 401.69V32.48C344 14.62 329.38 0 311.52 0H84.8601L0 84.86V401.68C0 419.53 14.6201 434.15 32.4701 434.15H311.52C329.38 434.15 344 419.54 344 401.68V401.69ZM84.6801 295.81L76.12 275.13C74.41 270.99 76.39 266.21 80.52 264.5L97.6001 257.42C96.7201 250.77 96.7401 244.12 97.6001 237.63L80.52 230.55C76.38 228.84 74.4 224.05 76.12 219.92L84.6801 199.25C86.3901 195.11 91.1801 193.13 95.3101 194.85L112.4 201.93C116.38 196.72 121.06 192 126.39 187.93L119.32 170.85C117.61 166.72 119.59 161.93 123.72 160.22L144.39 151.66C148.53 149.95 153.31 151.93 155.02 156.06L162.1 173.14C168.75 172.25 175.39 172.28 181.88 173.14L188.96 156.05C190.67 151.91 195.46 149.93 199.6 151.65L220.27 160.21C224.41 161.92 226.39 166.71 224.67 170.84L217.59 187.93C222.8 191.9 227.51 196.59 231.59 201.91L248.67 194.83C252.8 193.12 257.59 195.1 259.3 199.24L267.86 219.91C269.57 224.05 267.59 228.83 263.46 230.54L246.38 237.62C247.27 244.26 247.25 250.91 246.38 257.4L263.47 264.48C267.6 266.19 269.59 270.97 267.87 275.11L259.31 295.79C257.59 299.92 252.81 301.91 248.68 300.19L231.59 293.11C227.62 298.32 222.93 303.03 217.6 307.11L224.68 324.19C226.39 328.32 224.41 333.11 220.28 334.82L199.6 343.38C195.46 345.09 190.68 343.11 188.97 338.98L181.89 321.9C175.25 322.79 168.59 322.76 162.1 321.9L155.02 338.98C153.31 343.12 148.52 345.1 144.39 343.38L123.72 334.82C119.58 333.11 117.6 328.32 119.32 324.19L126.4 307.11C121.19 303.13 116.47 298.44 112.4 293.12L95.3201 300.19C91.1901 301.9 86.4001 299.92 84.6901 295.78L84.6801 295.81ZM158.94 216.01C176.35 208.8 196.31 217.07 203.52 234.47C210.73 251.88 202.46 271.84 185.06 279.05C167.65 286.26 147.69 277.99 140.48 260.59C133.27 243.18 141.54 223.22 158.95 216.01H158.94ZM45.3501 87.7H87.6901V45.36L45.3501 87.7ZM37.91 123.39H90.3C108.15 123.39 122.77 108.78 122.77 90.92V38.53H298.8C302.8 38.53 306.08 41.8099 306.08 45.8099V388.35C306.08 392.36 302.8 395.63 298.8 395.63H45.1901C41.1901 395.63 37.91 392.35 37.91 388.35V123.39Z" fill="#0A093D"/>
</svg>
