<svg width="344" height="435" viewBox="0 0 344 435" fill="none" xmlns="http://www.w3.org/2000/svg">
<path fill-rule="evenodd" clip-rule="evenodd" d="M165.23 175.41H273.75V200.63H165.23V175.41ZM343.99 401.69V32.48C343.99 14.62 329.37 0 311.52 0H84.86L0 84.86V401.68C0 419.53 14.62 434.15 32.48 434.15H311.53C329.39 434.15 344 419.54 344 401.68L343.99 401.69ZM45.34 87.7H87.6801V45.36L45.34 87.7ZM37.9 123.39H90.29C108.14 123.39 122.77 108.78 122.77 90.92V38.53H298.8C302.8 38.53 306.08 41.8099 306.08 45.8099V388.35C306.08 392.36 302.8 395.63 298.8 395.63H45.1899C41.1899 395.63 37.91 392.35 37.91 388.35V123.39H37.9ZM165.23 326.59H273.75V351.81H165.23V326.59ZM165.23 251H273.75V276.22H165.23V251Z" fill="#0A093D"/>
<path d="M120.372 186.99C120.841 186.99 121.247 187.161 121.588 187.502C121.929 187.843 122.1 188.249 122.1 188.718V198.382C122.1 198.851 121.929 199.257 121.588 199.598C121.247 199.939 120.841 200.11 120.372 200.11H81.716C81.2467 200.11 80.8413 199.939 80.5 199.598C80.1587 199.257 79.988 198.851 79.988 198.382V188.718C79.988 188.249 80.1587 187.843 80.5 187.502C80.8413 187.161 81.2467 186.99 81.716 186.99H93.556V171.63L87.092 175.918C86.7507 176.131 86.4307 176.238 86.132 176.238C85.5773 176.238 85.0867 175.961 84.66 175.406L79.476 167.342C79.348 167.086 79.284 166.787 79.284 166.446C79.284 165.763 79.54 165.23 80.052 164.846L94.26 155.566C94.5587 155.395 94.9 155.31 95.284 155.31H108.468C108.937 155.31 109.343 155.481 109.684 155.822C110.025 156.163 110.196 156.569 110.196 157.038V186.99H120.372Z" fill="#0A093D"/>
<path d="M144.155 184.878C144.624 184.878 145.03 185.049 145.371 185.39C145.712 185.731 145.883 186.137 145.883 186.606V198.382C145.883 198.851 145.712 199.257 145.371 199.598C145.03 199.939 144.624 200.11 144.155 200.11H130.715C130.246 200.11 129.84 199.939 129.499 199.598C129.158 199.257 128.987 198.851 128.987 198.382V186.606C128.987 186.137 129.158 185.731 129.499 185.39C129.84 185.049 130.246 184.878 130.715 184.878H144.155Z" fill="#0A093D"/>
<path d="M119.412 262.99C119.881 262.99 120.287 263.161 120.628 263.502C120.969 263.843 121.14 264.249 121.14 264.718V274.382C121.14 274.851 120.969 275.257 120.628 275.598C120.287 275.939 119.881 276.11 119.412 276.11H80.82C80.3507 276.11 79.9453 275.939 79.604 275.598C79.2627 275.257 79.092 274.851 79.092 274.382V266.51C79.092 265.87 79.1773 265.251 79.348 264.654C79.5187 264.057 79.988 263.523 80.756 263.054C88.0093 258.489 93.428 254.841 97.012 252.11C100.639 249.379 102.452 247.267 102.452 245.774C102.452 244.963 102.303 244.345 102.004 243.918C101.705 243.449 101.044 243.214 100.02 243.214C98.8253 243.214 97.9933 243.513 97.524 244.11C97.0547 244.707 96.7347 245.326 96.564 245.966C96.436 246.606 96.3293 247.033 96.244 247.246C96.116 247.587 95.924 247.801 95.668 247.886C95.4547 247.929 95.22 247.95 94.964 247.95C94.708 247.95 94.5373 247.95 94.452 247.95H81.46C81.0333 247.95 80.6493 247.801 80.308 247.502C80.0093 247.161 79.86 246.777 79.86 246.35C79.86 243.193 80.692 240.441 82.356 238.094C84.0627 235.705 86.4733 233.87 89.588 232.59C92.7027 231.31 96.3507 230.67 100.532 230.67C106.761 230.67 111.476 231.907 114.676 234.382C117.876 236.857 119.476 240.377 119.476 244.942C119.476 247.075 118.793 249.081 117.428 250.958C116.105 252.835 114.42 254.563 112.372 256.142C110.367 257.721 107.615 259.662 104.116 261.966L102.58 262.99H119.412Z" fill="#0A093D"/>
<path d="M144.155 260.878C144.624 260.878 145.03 261.049 145.371 261.39C145.712 261.731 145.883 262.137 145.883 262.606V274.382C145.883 274.851 145.712 275.257 145.371 275.598C145.03 275.939 144.624 276.11 144.155 276.11H130.715C130.246 276.11 129.84 275.939 129.499 275.598C129.158 275.257 128.987 274.851 128.987 274.382V262.606C128.987 262.137 129.158 261.731 129.499 261.39C129.84 261.049 130.246 260.878 130.715 260.878H144.155Z" fill="#0A093D"/>
<path d="M109.876 324.846C118.025 326.766 122.1 331.182 122.1 338.094C122.1 340.995 121.14 343.555 119.22 345.774C117.343 347.993 114.719 349.721 111.348 350.958C107.977 352.153 104.159 352.75 99.892 352.75C94.8147 352.75 90.612 352.046 87.284 350.638C83.9987 349.187 81.588 347.438 80.052 345.39C78.5587 343.342 77.812 341.358 77.812 339.438C77.812 339.011 77.94 338.67 78.196 338.414C78.4947 338.158 78.836 338.03 79.22 338.03H93.236C93.7053 338.03 94.196 338.286 94.708 338.798C95.3053 339.353 95.9027 339.758 96.5 340.014C97.0973 340.227 98.2493 340.334 99.956 340.334C101.577 340.334 102.793 340.014 103.604 339.374C104.415 338.734 104.82 337.923 104.82 336.942C104.82 335.065 103.177 334.126 99.892 334.126H91.38C90.9107 334.126 90.5053 333.955 90.164 333.614C89.8227 333.273 89.652 332.867 89.652 332.398V327.214C89.652 326.617 89.78 326.105 90.036 325.678C90.292 325.209 90.612 324.867 90.996 324.654L100.404 319.79H82.484C82.0147 319.79 81.6093 319.619 81.268 319.278C80.9267 318.937 80.756 318.531 80.756 318.062V309.038C80.756 308.569 80.9267 308.163 81.268 307.822C81.6093 307.481 82.0147 307.31 82.484 307.31H117.428C117.897 307.31 118.303 307.481 118.644 307.822C118.985 308.163 119.156 308.569 119.156 309.038V317.166C119.156 318.147 118.708 319.001 117.812 319.726L109.876 324.846Z" fill="#0A093D"/>
<path d="M144.155 336.878C144.624 336.878 145.03 337.049 145.371 337.39C145.712 337.731 145.883 338.137 145.883 338.606V350.382C145.883 350.851 145.712 351.257 145.371 351.598C145.03 351.939 144.624 352.11 144.155 352.11H130.715C130.246 352.11 129.84 351.939 129.499 351.598C129.158 351.257 128.987 350.851 128.987 350.382V338.606C128.987 338.137 129.158 337.731 129.499 337.39C129.84 337.049 130.246 336.878 130.715 336.878H144.155Z" fill="#0A093D"/>
<path fill-rule="evenodd" clip-rule="evenodd" d="M165.23 175.41H273.75V200.63H165.23V175.41ZM343.99 401.69V32.48C343.99 14.62 329.37 0 311.52 0H84.86L0 84.86V401.68C0 419.53 14.62 434.15 32.48 434.15H311.53C329.39 434.15 344 419.54 344 401.68L343.99 401.69ZM45.34 87.7H87.6801V45.36L45.34 87.7ZM37.9 123.39H90.29C108.14 123.39 122.77 108.78 122.77 90.92V38.53H298.8C302.8 38.53 306.08 41.8099 306.08 45.8099V388.35C306.08 392.36 302.8 395.63 298.8 395.63H45.1899C41.1899 395.63 37.91 392.35 37.91 388.35V123.39H37.9ZM165.23 326.59H273.75V351.81H165.23V326.59ZM165.23 251H273.75V276.22H165.23V251Z" fill="#0A093D"/>
<path d="M120.372 186.99C120.841 186.99 121.247 187.161 121.588 187.502C121.929 187.843 122.1 188.249 122.1 188.718V198.382C122.1 198.851 121.929 199.257 121.588 199.598C121.247 199.939 120.841 200.11 120.372 200.11H81.716C81.2467 200.11 80.8413 199.939 80.5 199.598C80.1587 199.257 79.988 198.851 79.988 198.382V188.718C79.988 188.249 80.1587 187.843 80.5 187.502C80.8413 187.161 81.2467 186.99 81.716 186.99H93.556V171.63L87.092 175.918C86.7507 176.131 86.4307 176.238 86.132 176.238C85.5773 176.238 85.0867 175.961 84.66 175.406L79.476 167.342C79.348 167.086 79.284 166.787 79.284 166.446C79.284 165.763 79.54 165.23 80.052 164.846L94.26 155.566C94.5587 155.395 94.9 155.31 95.284 155.31H108.468C108.937 155.31 109.343 155.481 109.684 155.822C110.025 156.163 110.196 156.569 110.196 157.038V186.99H120.372Z" fill="#0A093D"/>
<path d="M144.155 184.878C144.624 184.878 145.03 185.049 145.371 185.39C145.712 185.731 145.883 186.137 145.883 186.606V198.382C145.883 198.851 145.712 199.257 145.371 199.598C145.03 199.939 144.624 200.11 144.155 200.11H130.715C130.246 200.11 129.84 199.939 129.499 199.598C129.158 199.257 128.987 198.851 128.987 198.382V186.606C128.987 186.137 129.158 185.731 129.499 185.39C129.84 185.049 130.246 184.878 130.715 184.878H144.155Z" fill="#0A093D"/>
<path d="M119.412 262.99C119.881 262.99 120.287 263.161 120.628 263.502C120.969 263.843 121.14 264.249 121.14 264.718V274.382C121.14 274.851 120.969 275.257 120.628 275.598C120.287 275.939 119.881 276.11 119.412 276.11H80.82C80.3507 276.11 79.9453 275.939 79.604 275.598C79.2627 275.257 79.092 274.851 79.092 274.382V266.51C79.092 265.87 79.1773 265.251 79.348 264.654C79.5187 264.057 79.988 263.523 80.756 263.054C88.0093 258.489 93.428 254.841 97.012 252.11C100.639 249.379 102.452 247.267 102.452 245.774C102.452 244.963 102.303 244.345 102.004 243.918C101.705 243.449 101.044 243.214 100.02 243.214C98.8253 243.214 97.9933 243.513 97.524 244.11C97.0547 244.707 96.7347 245.326 96.564 245.966C96.436 246.606 96.3293 247.033 96.244 247.246C96.116 247.587 95.924 247.801 95.668 247.886C95.4547 247.929 95.22 247.95 94.964 247.95C94.708 247.95 94.5373 247.95 94.452 247.95H81.46C81.0333 247.95 80.6493 247.801 80.308 247.502C80.0093 247.161 79.86 246.777 79.86 246.35C79.86 243.193 80.692 240.441 82.356 238.094C84.0627 235.705 86.4733 233.87 89.588 232.59C92.7027 231.31 96.3507 230.67 100.532 230.67C106.761 230.67 111.476 231.907 114.676 234.382C117.876 236.857 119.476 240.377 119.476 244.942C119.476 247.075 118.793 249.081 117.428 250.958C116.105 252.835 114.42 254.563 112.372 256.142C110.367 257.721 107.615 259.662 104.116 261.966L102.58 262.99H119.412Z" fill="#0A093D"/>
<path d="M144.155 260.878C144.624 260.878 145.03 261.049 145.371 261.39C145.712 261.731 145.883 262.137 145.883 262.606V274.382C145.883 274.851 145.712 275.257 145.371 275.598C145.03 275.939 144.624 276.11 144.155 276.11H130.715C130.246 276.11 129.84 275.939 129.499 275.598C129.158 275.257 128.987 274.851 128.987 274.382V262.606C128.987 262.137 129.158 261.731 129.499 261.39C129.84 261.049 130.246 260.878 130.715 260.878H144.155Z" fill="#0A093D"/>
<path d="M109.876 324.846C118.025 326.766 122.1 331.182 122.1 338.094C122.1 340.995 121.14 343.555 119.22 345.774C117.343 347.993 114.719 349.721 111.348 350.958C107.977 352.153 104.159 352.75 99.892 352.75C94.8147 352.75 90.612 352.046 87.284 350.638C83.9987 349.187 81.588 347.438 80.052 345.39C78.5587 343.342 77.812 341.358 77.812 339.438C77.812 339.011 77.94 338.67 78.196 338.414C78.4947 338.158 78.836 338.03 79.22 338.03H93.236C93.7053 338.03 94.196 338.286 94.708 338.798C95.3053 339.353 95.9027 339.758 96.5 340.014C97.0973 340.227 98.2493 340.334 99.956 340.334C101.577 340.334 102.793 340.014 103.604 339.374C104.415 338.734 104.82 337.923 104.82 336.942C104.82 335.065 103.177 334.126 99.892 334.126H91.38C90.9107 334.126 90.5053 333.955 90.164 333.614C89.8227 333.273 89.652 332.867 89.652 332.398V327.214C89.652 326.617 89.78 326.105 90.036 325.678C90.292 325.209 90.612 324.867 90.996 324.654L100.404 319.79H82.484C82.0147 319.79 81.6093 319.619 81.268 319.278C80.9267 318.937 80.756 318.531 80.756 318.062V309.038C80.756 308.569 80.9267 308.163 81.268 307.822C81.6093 307.481 82.0147 307.31 82.484 307.31H117.428C117.897 307.31 118.303 307.481 118.644 307.822C118.985 308.163 119.156 308.569 119.156 309.038V317.166C119.156 318.147 118.708 319.001 117.812 319.726L109.876 324.846Z" fill="#0A093D"/>
<path d="M144.155 336.878C144.624 336.878 145.03 337.049 145.371 337.39C145.712 337.731 145.883 338.137 145.883 338.606V350.382C145.883 350.851 145.712 351.257 145.371 351.598C145.03 351.939 144.624 352.11 144.155 352.11H130.715C130.246 352.11 129.84 351.939 129.499 351.598C129.158 351.257 128.987 350.851 128.987 350.382V338.606C128.987 338.137 129.158 337.731 129.499 337.39C129.84 337.049 130.246 336.878 130.715 336.878H144.155Z" fill="#0A093D"/>
</svg>
