<svg width="344" height="435" viewBox="0 0 344 435" fill="none" xmlns="http://www.w3.org/2000/svg">
<path fill-rule="evenodd" clip-rule="evenodd" d="M165.23 175.41H273.75V200.63H165.23V175.41ZM343.99 401.69V32.48C343.99 14.62 329.37 0 311.52 0H84.86L0 84.86V401.68C0 419.53 14.62 434.15 32.48 434.15H311.53C329.39 434.15 344 419.54 344 401.68L343.99 401.69ZM45.34 87.7H87.6801V45.36L45.34 87.7ZM37.9 123.39H90.29C108.14 123.39 122.77 108.78 122.77 90.92V38.53H298.8C302.8 38.53 306.08 41.8099 306.08 45.8099V388.35C306.08 392.36 302.8 395.63 298.8 395.63H45.1899C41.1899 395.63 37.91 392.35 37.91 388.35V123.39H37.9ZM88.0599 309.73L104.73 326.4L128.66 302.47L146.5 320.31L104.73 362.08L70.22 327.57L88.0599 309.73ZM165.23 326.59H273.75V351.81H165.23V326.59ZM88.0599 234.15L104.73 250.82L128.66 226.89L146.5 244.72L104.73 286.49L70.22 251.98L88.0599 234.15ZM165.23 251H273.75V276.22H165.23V251ZM88.0599 158.56L104.73 175.23L128.66 151.3L146.5 169.13L104.73 210.9L70.22 176.39L88.0599 158.56Z" fill="#0A093D"/>
</svg>
